<?xml version="1.0" encoding="UTF-8"?>
<svg width="8px" height="15px" viewBox="0 0 8 15" version="1.1" xmlns="http://www.w3.org/2000/svg" xmlns:xlink="http://www.w3.org/1999/xlink">
    <title>Atoms/Glyphs/Order-top</title>
    <g id="DATI-AZIENDALI-/-CODICE-DESTINATARIO" stroke="none" stroke-width="1" fill="none" fill-rule="evenodd">
        <g id="Codice-destinatario-1---più-codici" transform="translate(-1331.000000, -379.000000)" fill="#0033a1">
            <g id="Atoms/Glyphs/Order-top" transform="translate(1319.000000, 370.000000)">
                <path d="M16.414545,9.14024167 L16.4926938,9.20949682 L19.7959196,12.6003916 C20.0680268,12.8797207 20.0680268,13.3326027 19.7959196,13.6119318 C19.5485493,13.8658673 19.1614553,13.8889523 18.8886808,13.6811869 L18.810532,13.6119318 L16.8,11.548 L16.8,22.7705086 C16.8,23.1536711 16.4418278,23.4642857 16,23.4642857 C15.5949912,23.4642857 15.2602763,23.2032832 15.2073031,22.86465 L15.2,22.7705086 L15.2,11.546 L13.189468,13.6119318 C12.9420977,13.8658673 12.5550037,13.8889523 12.2822292,13.6811869 L12.2040804,13.6119318 C11.9567102,13.3579962 11.934222,12.9606286 12.1366158,12.6806145 L12.2040804,12.6003916 L15.5073062,9.20949682 C15.7546765,8.95556128 16.1417705,8.93247623 16.414545,9.14024167 Z" id="Combined-Shape"></path>
            </g>
        </g>
    </g>
</svg>