<svg xmlns="http://www.w3.org/2000/svg" width="91" height="24" viewBox="0 0 91 24">
    <g fill="none">
        <path fill="#ffffff" d="M51.701 0c.477 0 .573.072.573 1.752v1.56c0 1.632-.12 1.824-.573 1.824h-5.418v18.36c0 .408-.502.504-2.316.504h-.954c-1.838 0-2.172-.096-2.172-.504V5.136h-5.419c-.453 0-.573-.12-.573-1.824v-1.56C34.85 0 34.945 0 35.422 0h16.28zm9.285.504c0-.36-.456-.504-2.065-.504h-.935c-1.674 0-1.978.168-1.978.504v22.992c0 .408.282.504 1.978.504h.935c1.587 0 2.065-.096 2.065-.504V.504zM88.564 0h-1.649c-2.093 0-2.24.216-2.388.575L81.277 8.2c-1.083 2.517-2.19 5.25-2.634 6.665-.394-1.414-1.108-3.285-2.634-6.785L72.76.6C72.563.143 71.75.023 69.978.023H68.13c-1.797 0-2.166.168-2.166.503v22.97c0 .407.37.503 2.24.503h1.01c1.846 0 2.363-.096 2.363-.503V9.878h.123s.172.647.418 1.223l3.742 8.535c.173.384.37.552 2.093.552h1.108c1.772 0 1.895-.12 2.068-.552l3.422-8.223c.32-.768.566-1.535.566-1.535h.123v13.619c0 .407.37.503 2.29.503h.984c1.797 0 2.339-.096 2.339-.503V.527c.05-.36-.468-.527-2.29-.527z"/>
        <path fill="#eb0028" d="M27.241 4.8H1.385c-.382 0-.716-.156-.98-.38C.168 4.197 0 3.862 0 3.505v-2.21C0 .938.143.625.406.38.645.156 1.003 0 1.385 0H27.24c.382 0 .717.156.98.38.238.223.405.558.405.893v2.21c0 .357-.143.67-.406.893-.262.29-.597.424-.979.424zm-16.04 4.8H1.355c-.374 0-.7.134-.957.38-.234.223-.397.558-.397.915v2.21c0 .357.14.67.397.915.233.246.583.38.957.38h9.848V9.6zm17.029.381c-.234-.246-.584-.381-.957-.381h-9.848v4.8h9.848c.373 0 .7-.157.957-.381.233-.225.396-.561.396-.898V10.88c-.023-.36-.163-.673-.396-.898zm0 9.6c-.234-.246-.584-.381-.957-.381h-9.848V24h9.848c.373 0 .7-.157.957-.381.233-.225.396-.561.396-.898v-2.22c-.023-.381-.163-.695-.396-.92zM11.202 19.2H1.354c-.374 0-.7.134-.957.38-.234.223-.397.558-.397.915v2.21c0 .357.14.67.397.915.233.246.583.38.957.38h9.848v-4.8z"/>
    </g>
</svg>
