<?xml version="1.0" encoding="UTF-8"?>
<svg width="16px" height="15px" viewBox="0 0 16 15" version="1.1" xmlns="http://www.w3.org/2000/svg" xmlns:xlink="http://www.w3.org/1999/xlink">
    <title>Atoms/Glyphs/Order</title>
    <g id="DATI-AZIENDALI-/-CODICE-DESTINATARIO" stroke="none" stroke-width="1" fill="none" fill-rule="evenodd">
        <g id="Codice-destinatario-1---più-codici" transform="translate(-1359.000000, -379.000000)" fill="#0033a1">
            <g id="Atoms/Glyphs/Order" transform="translate(1351.000000, 370.000000)">
                <path d="M20,9.53571429 C20.4418278,9.53571429 20.8,9.84632889 20.8,10.2294914 L20.8,10.2294914 L20.8,21.451 L22.810532,19.3880682 L22.8886808,19.3188131 C23.1614553,19.1110477 23.5485493,19.1341327 23.7959196,19.3880682 C24.0680268,19.6673973 24.0680268,20.1202793 23.7959196,20.3996084 L23.7959196,20.3996084 L20.4926938,23.7905032 L20.414545,23.8597583 C20.1417705,24.0675238 19.7546765,24.0444387 19.5073062,23.7905032 L19.5073062,23.7905032 L16.2040804,20.3996084 L16.1366158,20.3193855 C15.934222,20.0393714 15.9567102,19.6420038 16.2040804,19.3880682 L16.2040804,19.3880682 L16.2822292,19.3188131 C16.5550037,19.1110477 16.9420977,19.1341327 17.189468,19.3880682 L17.189468,19.3880682 L19.2,21.453 L19.2,10.2294914 L19.2073031,10.13535 C19.2602763,9.79671683 19.5949912,9.53571429 20,9.53571429 Z M12.414545,9.14024167 L12.4926938,9.20949682 L15.7959196,12.6003916 C16.0680268,12.8797207 16.0680268,13.3326027 15.7959196,13.6119318 C15.5485493,13.8658673 15.1614553,13.8889523 14.8886808,13.6811869 L14.810532,13.6119318 L12.8,11.548 L12.8,22.7705086 C12.8,23.1536711 12.4418278,23.4642857 12,23.4642857 C11.5949912,23.4642857 11.2602763,23.2032832 11.2073031,22.86465 L11.2,22.7705086 L11.2,11.546 L9.18946795,13.6119318 C8.94209772,13.8658673 8.55500372,13.8889523 8.28222917,13.6811869 L8.20408044,13.6119318 C7.95671021,13.3579962 7.93422201,12.9606286 8.13661583,12.6806145 L8.20408044,12.6003916 L11.5073062,9.20949682 C11.7546765,8.95556128 12.1417705,8.93247623 12.414545,9.14024167 Z" id="Combined-Shape"></path>
            </g>
        </g>
    </g>
</svg>